<svg fill="none" height="27" width="26" xmlns="http://www.w3.org/2000/svg"><path d="m0 .15h26v26h-26z" fill="#fff"/><path d="m21.363 15.287h-3.463l1.072-4.275h2.391c.903 0 1.63-.72 1.63-1.63s-.72-1.63-1.63-1.63h-1.58l.65-2.581c.112-.417.049-.86-.184-1.235a1.662 1.662 0 0 0 -1.002-.74c-.416-.092-.86-.05-1.235.183a1.662 1.662 0 0 0 -.74 1.002l-.84 3.372h-4.182l.649-2.582c.113-.417.05-.86-.184-1.235a1.662 1.662 0 0 0 -1.002-.74c-.416-.092-.86-.05-1.234.183a1.662 1.662 0 0 0 -.74 1.002l-.84 3.372h-4.269c-.903 0-1.63.72-1.63 1.63s.72 1.629 1.63 1.629h3.463l-1.072 4.275h-2.391c-.91 0-1.63.72-1.63 1.623s.72 1.63 1.63 1.63h1.58l-.65 2.581c-.112.417-.049.861.184 1.235s.579.628 1.002.74c.141.022.254.05.395.05.74 0 1.397-.508 1.58-1.235l.84-3.372h4.183l-.649 2.582c-.113.417-.05.861.184 1.235.232.374.578.628 1.001.74.142.022.254.05.396.05.74 0 1.396-.508 1.58-1.235l.84-3.372h4.274c.903 0 1.63-.72 1.63-1.63s-.72-1.629-1.63-1.629zm-6.807 0h-4.184l1.072-4.275h4.184z" fill="#092a5e"/></svg>