<svg width="26" height="26" fill="none" xmlns="http://www.w3.org/2000/svg"><path fill="#fff" d="M0 0H26V26H0z"/><path d="M9.564 6.997L6.725 6.24A9.385 9.385 0 0114.111 0c-.375.268-.736.58-1.084.924-1.46 1.45-2.705 3.574-3.468 6.073h.005zM15.169 8.497l-4.396-1.178c.714-2.312 1.857-4.235 3.142-5.512 1.173-1.169 2.4-1.74 3.503-1.7l-2.25 8.39zM16.374 8.823l2.249-8.39c.973.513 1.75 1.62 2.187 3.222.473 1.745.504 3.98-.036 6.341l-4.4-1.178v.005zM21.979 10.322c.589-2.544.575-5.003.035-6.993a9.187 9.187 0 00-.477-1.343 9.367 9.367 0 013.28 9.095l-2.838-.76zM.625 23.75h.656c.317-3.163 3.008-5.622 6.27-5.622 1.647 0 3.146.629 4.27 1.655l2.745-9.577a.626.626 0 111.21.326l-2.977 10.385c.17.254.321.522.455.798a5.014 5.014 0 011.643-.276c1.776 0 3.333.924 4.212 2.316h5.266c.344 0 .625.281.625.625a.627.627 0 01-.625.625H.625A.627.627 0 010 24.38c0-.344.281-.625.625-.625v-.005z" fill="#092A5E"/></svg>