<svg width="26" height="29" fill="none" xmlns="http://www.w3.org/2000/svg"><path fill="#fff" d="M0 1H26V27H0z"/><path d="M14.68 3.75h-.626v1.265a9.072 9.072 0 000 18.142v1.239C8.368 24.386 3.75 19.756 3.75 14.07c0-5.692 4.63-10.326 10.326-10.326V0c-.859.02-1.427 2.432-2.275 2.598-.85.167-2.302-1.864-3.104-1.53-.802.333-.396 2.796-1.114 3.275-.719.479-2.838-.839-3.453-.23-.614.61.703 2.735.224 3.453-.479.719-2.947.313-3.275 1.11-.333.796 1.697 2.254 1.526 3.103C2.432 12.633 0 13.2 0 14.065c0 .864 2.432 1.437 2.598 2.286.167.849-1.864 2.301-1.53 3.103.333.802 2.796.396 3.275 1.115.479.718-.839 2.838-.23 3.452.61.614 2.735-.703 3.453-.224.719.48.313 2.947 1.11 3.276.796.333 2.254-1.698 3.103-1.526.849.172 1.416 2.603 2.28 2.603h.011v-3.749h.604c5.692 0 10.326-4.63 10.326-10.326C25 8.378 20.376 3.75 14.68 3.75zm.63 19.375s-.662.047-1.25.032V5.015s.676-.032 1.25.005c4.712.323 8.446 4.26 8.446 9.05 0 4.79-3.734 8.732-8.447 9.05v.005z" fill="#092A5E"/></svg>