<svg width="26" height="27" fill="none" xmlns="http://www.w3.org/2000/svg"><path fill="#fff" d="M0 0.15H26V26.15H0z"/><path d="M7.637 23.077c-.076 0-.129 0-.21-.03a.56.56 0 01-.34-.754l1.117-3.067a.56.56 0 01.755-.34.56.56 0 01.34.756L8.18 22.708a.568.568 0 01-.544.363v.006zm5.348-.392l1.089-3.067c.105-.31-.053-.62-.34-.755-.31-.105-.62.053-.755.34l-1.117 3.066c-.105.31.053.62.34.755.075.03.128.03.21.03.257.023.468-.13.573-.363v-.006zm4.776 0l1.094-3.067c.105-.31-.053-.62-.34-.755-.31-.105-.62.053-.755.34l-1.117 3.066c-.105.31.052.62.34.755.075.03.128.03.21.03.257.023.468-.13.567-.363v-.006zm4.312-13.916a5.64 5.64 0 00.13-1.141 5.477 5.477 0 00-5.478-5.478c-1.82 0-3.453.907-4.442 2.288a5.135 5.135 0 00-2.78-.83c-2.832 0-5.143 2.288-5.143 5.114C1.943 8.752 0 10.694 0 13.088a4.373 4.373 0 004.366 4.365h17.268A4.358 4.358 0 0026 13.088a4.403 4.403 0 00-3.92-4.313l-.007-.006z" fill="#092A5E"/></svg>