<svg width="26" height="26" fill="none" xmlns="http://www.w3.org/2000/svg"><path fill="#fff" d="M0 0H26V26H0z"/><path fill-rule="evenodd" clip-rule="evenodd" d="M17.611 19.887c.37.065.736.175 1.106.285.475.142.947.3 1.434.3.358 0 .65.293.65.65 0 .358-.292.651-.65.651-.617 0-1.215-.17-1.812-.35-.476-.142-.947-.3-1.435-.3-.545 0-1.142.154-1.756.304-.715.175-1.443.346-2.146.346-.703 0-1.43-.17-2.146-.346-.61-.15-1.207-.304-1.756-.304-.488 0-.963.154-1.435.3-.597.183-1.194.35-1.812.35a.652.652 0 01-.65-.65c0-.358.292-.65.65-.65.487 0 .963-.155 1.434-.301.366-.11.736-.22 1.106-.285-1.008-.788-1.78-1.825-2.199-3.016a3.28 3.28 0 01-.345.02c-.443 0-.91-.154-1.39-.3-.61-.183-1.236-.35-1.858-.35-.74 0-2.243.724-2.243.724a.664.664 0 00-.358.593v7.792c0 .174.073.337.187.463A.644.644 0 00.65 26h24.7a.695.695 0 00.463-.187.644.644 0 00.187-.463v-7.792c0-.24-.13-.475-.358-.593 0 0-1.495-.724-2.243-.724-.618 0-1.248.171-1.858.35-.487.142-.955.3-1.39.3-.117 0-.235-.007-.345-.02a6.535 6.535 0 01-2.199 3.016h.004zm-.057 5.463c.703 0 1.43-.171 2.146-.346.61-.15 1.207-.305 1.756-.305.488 0 .963.155 1.435.301.597.183 1.195.35 1.813.35.357 0 .65-.293.65-.65a.652.652 0 00-.65-.65c-.488 0-.964-.155-1.435-.302-.598-.183-1.195-.35-1.813-.35-.618 0-1.345.172-2.069.346-.61.15-1.235.305-1.833.305a.652.652 0 00-.65.65c0 .358.293.65.65.65zm-9.1-1.3c-.598 0-1.223-.155-1.833-.306-.715-.174-1.423-.345-2.069-.345-.646 0-1.215.17-1.813.35-.475.142-.947.3-1.434.3a.652.652 0 00-.65.65c0 .358.292.65.65.65.617 0 1.215-.17 1.812-.349.476-.142.947-.3 1.435-.3.545 0 1.142.154 1.756.304.715.175 1.443.346 2.146.346.358 0 .65-.293.65-.65a.652.652 0 00-.65-.65zM13.002 0a3.89 3.89 0 00-2.756 1.142 3.874 3.874 0 00-1.142 2.756v6.04a5.847 5.847 0 003.898 10.21A5.847 5.847 0 0016.9 9.937v-6.04a3.89 3.89 0 00-1.142-2.756A3.874 3.874 0 0013.002 0zm-1.947 11.697a3.253 3.253 0 001.95 5.853 3.25 3.25 0 001.952-5.853v-7.8c0-1.076-.87-1.95-1.95-1.95-1.082 0-1.952.87-1.952 1.95v7.8zm.972.91a.652.652 0 00.325-.564V3.898c0-.358.292-.65.65-.65.358 0 .65.292.65.65v8.149c0 .236.122.447.325.565.586.337.976.967.976 1.69 0 1.078-.87 1.952-1.951 1.952s-1.95-.87-1.95-1.951c0-.724.39-1.354.975-1.691v-.008.004zm6.178-2.856h3.251c.358 0 .65-.293.65-.65a.652.652 0 00-.65-.651h-3.252a.652.652 0 00-.65.65c0 .358.293.65.65.65zm0-1.951h1.3c.358 0 .65-.293.65-.65a.652.652 0 00-.65-.651h-1.3a.652.652 0 00-.65.65c0 .358.292.65.65.65zm0-1.951h3.251c.358 0 .65-.293.65-.65a.652.652 0 00-.65-.65h-3.252a.652.652 0 00-.65.65c0 .357.293.65.65.65zm0-1.951h1.3c.358 0 .65-.293.65-.65a.652.652 0 00-.65-.65h-1.3a.652.652 0 00-.65.65c0 .357.292.65.65.65zm0-1.947h3.251c.358 0 .65-.293.65-.65a.652.652 0 00-.65-.65h-3.252a.652.652 0 00-.65.65c0 .357.293.65.65.65z" fill="#092A5E"/></svg>