<svg width="26" height="30" fill="none" xmlns="http://www.w3.org/2000/svg"><path fill="#fff" d="M0 2.15H26V28.15H0z"/><g clip-path="url(#a)" fill="#092A5E"><path d="M8.9 17.547L6.34 27.124a1.615 1.615 0 003.109.878l2.654-7.577-2.847-2.238c-.162-.123-.27-.285-.354-.64zM8.184 15.448l2.712-9.931c-4.557-4.369-5.37-.501-4.68 6.294.154 1.514.666 2.496 1.968 3.637zM15.496 5.397c1.425.081 2.662-1.082 2.7-2.542.039-1.464-1.113-2.69-2.542-2.705-1.422-.015-2.635 1.202-2.627 2.64.007 1.37 1.105 2.53 2.473 2.607h-.004z"/><path d="M22.738 14.346s-8.151-8.394-7.23-7.42c-1.954-2.06-3.298-1.922-3.953.62L9.54 15.013c-.381 1.437.243 2.023.651 2.373l5.424 4.342.016 5.832c0 .89.736 1.572 1.63 1.572.893 0 1.533-.728 1.533-1.618v-6.51c-.043-.513-.124-.944-.501-1.271l-4.557-3.922 1.899-5.397 5.574 5.412v12.709c-.023.381.323.597.582.597.258 0 .493-.216.516-.582l.008-12.32c.277-.076.477-.18.643-.446.35-.563.327-.84-.216-1.437h-.004z"/></g><defs><clipPath id="a"><path fill="#fff" transform="translate(6 .15)" d="M0 0H17.189V29H0z"/></clipPath></defs></svg>